<?xml version="1.0" encoding="UTF-8"?>
<svg version="1.1" xmlns="http://www.w3.org/2000/svg" width="24" height="24">
    <path d="M0 0 C6.27 0 12.54 0 19 0 C19 3.63 19 7.26 19 11 C12.73 11 6.46 11 0 11 C0 7.37 0 3.74 0 0 Z M2 2 C2 2.66 2 3.32 2 4 C3.98 4 5.96 4 8 4 C8 3.34 8 2.68 8 2 C6.02 2 4.04 2 2 2 Z M11 2 C11 2.66 11 3.32 11 4 C12.98 4 14.96 4 17 4 C17 3.34 17 2.68 17 2 C15.02 2 13.04 2 11 2 Z M2 7 C2 7.66 2 8.32 2 9 C3.98 9 5.96 9 8 9 C8 8.34 8 7.68 8 7 C6.02 7 4.04 7 2 7 Z M11 7 C11 7.66 11 8.32 11 9 C12.98 9 14.96 9 17 9 C17 8.34 17 7.68 17 7 C15.02 7 13.04 7 11 7 Z " fill="#7ED5DF" transform="translate(5,12)"/>
    <path d="M0 0 C6.27 0 12.54 0 19 0 C19 1.98 19 3.96 19 6 C12.73 6 6.46 6 0 6 C0 4.02 0 2.04 0 0 Z M2 2 C2 2.66 2 3.32 2 4 C3.98 4 5.96 4 8 4 C8 3.34 8 2.68 8 2 C6.02 2 4.04 2 2 2 Z M11 2 C11 2.66 11 3.32 11 4 C12.98 4 14.96 4 17 4 C17 3.34 17 2.68 17 2 C15.02 2 13.04 2 11 2 Z " fill="#7ED5DF" transform="translate(5,1)"/>
    <path d="M0 0 C4 2 4 2 4.9375 3.9375 C5 6 5 6 3.6875 7.75 C2 9 2 9 0 9 C0 6.03 0 3.06 0 0 Z " fill="#7DD6DE" transform="translate(0,5)"/>
</svg>
